Coordinates
version=1
nRows=6
nColumns=38
inDegrees=yes

Units are S.I. units (second, meters, Newtons, ...)
If the header above contains a line with 'inDegrees', this indicates whether rotational values are in degrees (yes) or radians (no).

endheader
time	pelvis_tilt	pelvis_list	pelvis_rotation	pelvis_tx	pelvis_ty	pelvis_tz	hip_flexion_r	hip_adduction_r	hip_rotation_r	knee_angle_r	ankle_angle_r	subtalar_angle_r	mtp_angle_r	hip_flexion_l	hip_adduction_l	hip_rotation_l	knee_angle_l	ankle_angle_l	subtalar_angle_l	mtp_angle_l	lumbar_extension	lumbar_bending	lumbar_rotation	arm_flex_r	arm_add_r	arm_rot_r	elbow_flex_r	pro_sup_r	wrist_flex_r	wrist_dev_r	arm_flex_l	arm_add_l	arm_rot_l	elbow_flex_l	pro_sup_l	wrist_flex_l	wrist_dev_l
      0.47600000	    -12.44549646	      9.46274102	     -1.22820817	     -1.45605910	      0.94958918	      0.19223648	    -30.81912547	     -7.71624507	    -13.70143935	     -6.59130763	    -34.74480622	      8.25966824	      0.00000000	     85.96224343	      4.13310330	    -10.14786541	    -94.22745372	      2.35067270	    -17.07237578	      0.00000000	      0.56513928	    -12.96728630	     11.60022146	     52.50756663	    -31.57658840	      8.33443612	    118.58665751	     60.00586988	      0.00000000	      0.00000000	    -87.96285183	    -27.38508895	     -8.12322089	     61.64727364	     60.00014031	      0.00000000	      0.00000000
      0.48000000	    -12.44807771	      9.90155220	     -1.63148368	     -1.41874294	      0.95037277	      0.19194134	    -31.65556910	     -8.60220445	    -13.27328462	     -8.31282147	    -35.42966060	      5.76675998	      0.00000000	     85.67677624	      3.97180897	    -10.39407643	    -89.46128996	      2.64179196	    -16.20993106	      0.00000000	      0.60831257	    -13.31750076	     12.19166096	     53.92508453	    -31.90179576	      8.41985457	    120.49793149	     60.00586988	      0.00000000	      0.00000000	    -88.44414068	    -25.69963052	    -10.96412857	     61.41133628	     60.00014031	      0.00000000	      0.00000000
      0.48400000	    -12.25499474	      9.22522260	     -1.53305262	     -1.38085729	      0.95244940	      0.19355210	    -32.31638864	     -7.74313148	    -11.34571030	    -10.80707003	    -33.33887297	      3.28462074	      0.00000000	     84.74573763	      3.84007193	     -9.54473322	    -84.50625873	      3.14967978	    -14.72064629	      0.00000000	      0.28232773	    -12.79154259	     12.08887911	     54.46643880	    -31.69976018	      7.75176749	    122.48137990	     60.00586988	      0.00000000	      0.00000000	    -88.69028510	    -23.99513674	    -13.93473063	     61.29780048	     60.00014031	      0.00000000	      0.00000000
      0.48800000	    -12.19056813	      8.84027723	     -1.48025538	     -1.34401408	      0.95408007	      0.19500932	    -32.40490617	     -7.24191329	     -9.76018697	    -14.00064096	    -33.98603931	     -1.75366884	      0.00000000	     83.63611755	      3.81186887	     -8.83546225	    -79.18243738	      3.76265554	    -12.54567235	      0.00000000	      0.04034235	    -12.55317904	     12.28142018	     54.72077934	    -31.98189467	      7.28112373	    124.51020066	     60.00586988	      0.00000000	      0.00000000	    -88.60509433	    -22.47977671	    -17.06514859	     61.49133557	     60.00014031	      0.00000000	      0.00000000
      0.49200000	    -12.26858841	      7.87031079	     -1.16888694	     -1.30707900	      0.95579325	      0.19692530	    -32.10298387	     -5.91568796	     -7.63577014	    -17.90408752	    -29.76748538	     -1.68123384	      0.00000000	     82.39308182	      3.77857113	     -7.63169126	    -73.79469192	      4.18004054	     -9.81124473	      0.00000000	     -0.22322949	    -11.80291945	     11.94630227	     54.55537878	    -32.02656890	      6.73343571	    126.51868741	     60.00586988	      0.00000000	      0.00000000	    -88.35986556	    -21.25237568	    -18.96678789	     61.63255343	     60.00014031	      0.00000000	      0.00000000
      0.49600000	    -12.22286729	      7.62697170	     -0.66236990	     -1.26991558	      0.95761909	      0.19798875	    -31.81246864	     -5.30936520	     -7.11699456	    -22.04925875	    -28.23852589	     -2.73587499	      0.00000000	     80.72016037	      4.10758616	     -7.15742509	    -68.01929044	      4.58979205	     -7.01240045	      0.00000000	     -0.65853476	    -11.81960533	     11.28790333	     54.01403030	    -32.05142022	      6.36075483	    128.52766266	     60.00586988	      0.00000000	      0.00000000	    -87.92309797	    -20.29010521	    -20.13713149	     61.64233575	     60.00014031	      0.00000000	      0.00000000
